{
    "asset" : {
        "generator" : "Khronos glTF Blender I/O v1.6.16",
        "version" : "2.0"
    },
    "scene" : 0,
    "scenes" : [
        {
            "name" : "Scene",
            "nodes" : [
                0,
                1,
                2,
                3,
                4,
                5,
                6,
                7,
                8,
                9,
                10,
                11,
                12
            ]
        }
    ],
    "nodes" : [
        {
            "mesh" : 0,
            "name" : "creamer",
            "translation" : [
                2.3650712966918945,
                -0.9222148656845093,
                -1.5841102600097656
            ]
        },
        {
            "mesh" : 1,
            "name" : "plate2",
            "translation" : [
                2.736149787902832,
                -0.9240200519561768,
                1.4231551885604858
            ]
        },
        {
            "mesh" : 2,
            "name" : "teapot",
            "translation" : [
                -1.2918347120285034,
                0.7793154120445251,
                -0.006465184036642313
            ]
        },
        {
            "mesh" : 3,
            "name" : "teacup2",
            "translation" : [
                2.0731019973754883,
                -0.03229862451553345,
                1.423522710800171
            ]
        },
        {
            "mesh" : 4,
            "name" : "head",
            "translation" : [
                0,
                -1.2420228719711304,
                0
            ]
        },
        {
            "mesh" : 5,
            "name" : "tray"
        },
        {
            "mesh" : 6,
            "name" : "plate",
            "translation" : [
                0.07800684869289398,
                -0.9240200519561768,
                3.574737548828125
            ]
        },
        {
            "mesh" : 7,
            "name" : "spoon",
            "translation" : [
                2.7909042835235596,
                0.36022186279296875,
                0.664932131767273
            ]
        },
        {
            "mesh" : 8,
            "name" : "teacup",
            "translation" : [
                -0.30000039935112,
                -0.07432670146226883,
                2.940000534057617
            ]
        },
        {
            "mesh" : 9,
            "name" : "sugarpot",
            "translation" : [
                0.033266160637140274,
                -0.4343835711479187,
                -3.361326217651367
            ]
        },
        {
            "mesh" : 10,
            "name" : "sugarpot.001",
            "translation" : [
                0.0332789309322834,
                0.7982376217842102,
                -3.3776369094848633
            ]
        },
        {
            "mesh" : 11,
            "name" : "teapotlid",
            "translation" : [
                0,
                -1.2420228719711304,
                0
            ]
        },
        {
            "name" : "Point.003",
            "rotation" : [
                0.3680347502231598,
                0.2776332497596741,
                0.2235977053642273,
                0.8587632179260254
            ],
            "translation" : [
                -13.666184425354004,
                21.1448917388916,
                5.021557807922363
            ]
        }
    ],
    "meshes" : [
        {
            "name" : "NurbsPath",
            "primitives" : [
                {
                    "attributes" : {
                        "POSITION" : 0,
                        "NORMAL" : 1,
                        "TEXCOORD_0" : 2
                    },
                    "indices" : 3
                }
            ]
        },
        {
            "name" : "Cylinder",
            "primitives" : [
                {
                    "attributes" : {
                        "POSITION" : 4,
                        "NORMAL" : 5,
                        "TEXCOORD_0" : 6
                    },
                    "indices" : 7
                }
            ]
        },
        {
            "name" : "NurbsPath.005",
            "primitives" : [
                {
                    "attributes" : {
                        "POSITION" : 8,
                        "NORMAL" : 9,
                        "TEXCOORD_0" : 10
                    },
                    "indices" : 11
                }
            ]
        },
        {
            "name" : "NurbsPath.008",
            "primitives" : [
                {
                    "attributes" : {
                        "POSITION" : 12,
                        "NORMAL" : 13,
                        "TEXCOORD_0" : 14
                    },
                    "indices" : 15
                }
            ]
        },
        {
            "name" : "Plane.001",
            "primitives" : [
                {
                    "attributes" : {
                        "POSITION" : 16,
                        "NORMAL" : 17,
                        "TEXCOORD_0" : 18
                    },
                    "indices" : 19
                }
            ]
        },
        {
            "name" : "Cylinder.002",
            "primitives" : [
                {
                    "attributes" : {
                        "POSITION" : 20,
                        "NORMAL" : 21,
                        "TEXCOORD_0" : 22
                    },
                    "indices" : 23
                }
            ]
        },
        {
            "name" : "Cylinder.003",
            "primitives" : [
                {
                    "attributes" : {
                        "POSITION" : 24,
                        "NORMAL" : 25,
                        "TEXCOORD_0" : 26
                    },
                    "indices" : 27
                }
            ]
        },
        {
            "name" : "Cube.010",
            "primitives" : [
                {
                    "attributes" : {
                        "POSITION" : 28,
                        "NORMAL" : 29,
                        "TEXCOORD_0" : 30
                    },
                    "indices" : 31
                }
            ]
        },
        {
            "name" : "NurbsPath.003",
            "primitives" : [
                {
                    "attributes" : {
                        "POSITION" : 32,
                        "NORMAL" : 33,
                        "TEXCOORD_0" : 34
                    },
                    "indices" : 35
                }
            ]
        },
        {
            "name" : "NurbsPath.010",
            "primitives" : [
                {
                    "attributes" : {
                        "POSITION" : 36,
                        "NORMAL" : 37,
                        "TEXCOORD_0" : 38
                    },
                    "indices" : 39
                }
            ]
        },
        {
            "name" : "NurbsPath.001",
            "primitives" : [
                {
                    "attributes" : {
                        "POSITION" : 40,
                        "NORMAL" : 41,
                        "TEXCOORD_0" : 42
                    },
                    "indices" : 43
                }
            ]
        },
        {
            "name" : "NurbsPath.002",
            "primitives" : [
                {
                    "attributes" : {
                        "POSITION" : 44,
                        "NORMAL" : 45,
                        "TEXCOORD_0" : 46
                    },
                    "indices" : 47
                }
            ]
        }
    ],
    "accessors" : [
        {
            "bufferView" : 0,
            "componentType" : 5126,
            "count" : 3330,
            "max" : [
                1.2701399326324463,
                2.256882667541504,
                1.6609022617340088
            ],
            "min" : [
                -1.1555941104888916,
                -0.24716699123382568,
                -1.3932857513427734
            ],
            "type" : "VEC3"
        },
        {
            "bufferView" : 1,
            "componentType" : 5126,
            "count" : 3330,
            "type" : "VEC3"
        },
        {
            "bufferView" : 2,
            "componentType" : 5126,
            "count" : 3330,
            "type" : "VEC2"
        },
        {
            "bufferView" : 3,
            "componentType" : 5123,
            "count" : 17643,
            "type" : "SCALAR"
        },
        {
            "bufferView" : 4,
            "componentType" : 5126,
            "count" : 3842,
            "max" : [
                1.574772834777832,
                0.25728893280029297,
                1.572433590888977
            ],
            "min" : [
                -1.5722601413726807,
                -0.18862295150756836,
                -1.5745995044708252
            ],
            "type" : "VEC3"
        },
        {
            "bufferView" : 5,
            "componentType" : 5126,
            "count" : 3842,
            "type" : "VEC3"
        },
        {
            "bufferView" : 6,
            "componentType" : 5126,
            "count" : 3842,
            "type" : "VEC2"
        },
        {
            "bufferView" : 7,
            "componentType" : 5123,
            "count" : 21888,
            "type" : "SCALAR"
        },
        {
            "bufferView" : 8,
            "componentType" : 5126,
            "count" : 12514,
            "max" : [
                2.3869376182556152,
                2.549368381500244,
                2.315422534942627
            ],
            "min" : [
                -5.169605731964111,
                -1.8164927959442139,
                -5.013652324676514
            ],
            "type" : "VEC3"
        },
        {
            "bufferView" : 9,
            "componentType" : 5126,
            "count" : 12514,
            "type" : "VEC3"
        },
        {
            "bufferView" : 10,
            "componentType" : 5126,
            "count" : 12514,
            "type" : "VEC2"
        },
        {
            "bufferView" : 11,
            "componentType" : 5123,
            "count" : 70362,
            "type" : "SCALAR"
        },
        {
            "bufferView" : 12,
            "componentType" : 5126,
            "count" : 3209,
            "max" : [
                1.607736349105835,
                0.7241873145103455,
                0.9510250091552734
            ],
            "min" : [
                -0.9613806009292603,
                -0.8465068340301514,
                -0.9510588645935059
            ],
            "type" : "VEC3"
        },
        {
            "bufferView" : 13,
            "componentType" : 5126,
            "count" : 3209,
            "type" : "VEC3"
        },
        {
            "bufferView" : 14,
            "componentType" : 5126,
            "count" : 3209,
            "type" : "VEC2"
        },
        {
            "bufferView" : 15,
            "componentType" : 5123,
            "count" : 16416,
            "type" : "SCALAR"
        },
        {
            "bufferView" : 16,
            "componentType" : 5126,
            "count" : 7775,
            "max" : [
                -0.6201109886169434,
                4.156890869140625,
                0.7845529317855835
            ],
            "min" : [
                -1.8937878608703613,
                1.6566016674041748,
                -0.7318829894065857
            ],
            "type" : "VEC3"
        },
        {
            "bufferView" : 17,
            "componentType" : 5126,
            "count" : 7775,
            "type" : "VEC3"
        },
        {
            "bufferView" : 18,
            "componentType" : 5126,
            "count" : 7775,
            "type" : "VEC2"
        },
        {
            "bufferView" : 19,
            "componentType" : 5123,
            "count" : 43965,
            "type" : "SCALAR"
        },
        {
            "bufferView" : 20,
            "componentType" : 5126,
            "count" : 1250,
            "max" : [
                5.191306114196777,
                -0.35489630699157715,
                6.3227643966674805
            ],
            "min" : [
                -3.839987277984619,
                -1.259270429611206,
                -6.322762966156006
            ],
            "type" : "VEC3"
        },
        {
            "bufferView" : 21,
            "componentType" : 5126,
            "count" : 1250,
            "type" : "VEC3"
        },
        {
            "bufferView" : 22,
            "componentType" : 5126,
            "count" : 1250,
            "type" : "VEC2"
        },
        {
            "bufferView" : 23,
            "componentType" : 5123,
            "count" : 6624,
            "type" : "SCALAR"
        },
        {
            "bufferView" : 24,
            "componentType" : 5126,
            "count" : 3842,
            "max" : [
                1.5747689008712769,
                0.25728893280029297,
                1.5724296569824219
            ],
            "min" : [
                -1.5722640752792358,
                -0.18862295150756836,
                -1.5746030807495117
            ],
            "type" : "VEC3"
        },
        {
            "bufferView" : 25,
            "componentType" : 5126,
            "count" : 3842,
            "type" : "VEC3"
        },
        {
            "bufferView" : 26,
            "componentType" : 5126,
            "count" : 3842,
            "type" : "VEC2"
        },
        {
            "bufferView" : 27,
            "componentType" : 5123,
            "count" : 21888,
            "type" : "SCALAR"
        },
        {
            "bufferView" : 28,
            "componentType" : 5126,
            "count" : 396,
            "max" : [
                0.2188107967376709,
                0.9395866394042969,
                0.7240461111068726
            ],
            "min" : [
                -0.2286360263824463,
                -0.7762696743011475,
                -0.8384839296340942
            ],
            "type" : "VEC3"
        },
        {
            "bufferView" : 29,
            "componentType" : 5126,
            "count" : 396,
            "type" : "VEC3"
        },
        {
            "bufferView" : 30,
            "componentType" : 5126,
            "count" : 396,
            "type" : "VEC2"
        },
        {
            "bufferView" : 31,
            "componentType" : 5123,
            "count" : 2148,
            "type" : "SCALAR"
        },
        {
            "bufferView" : 32,
            "componentType" : 5126,
            "count" : 3209,
            "max" : [
                1.3153884410858154,
                0.7241873741149902,
                1.5073366165161133
            ],
            "min" : [
                -0.6063119173049927,
                -0.8465067148208618,
                -0.857029914855957
            ],
            "type" : "VEC3"
        },
        {
            "bufferView" : 33,
            "componentType" : 5126,
            "count" : 3209,
            "type" : "VEC3"
        },
        {
            "bufferView" : 34,
            "componentType" : 5126,
            "count" : 3209,
            "type" : "VEC2"
        },
        {
            "bufferView" : 35,
            "componentType" : 5123,
            "count" : 16416,
            "type" : "SCALAR"
        },
        {
            "bufferView" : 36,
            "componentType" : 5126,
            "count" : 12548,
            "max" : [
                2.028027057647705,
                0.9421864151954651,
                1.4064249992370605
            ],
            "min" : [
                -2.0278706550598145,
                -0.7352505326271057,
                -1.4072070121765137
            ],
            "type" : "VEC3"
        },
        {
            "bufferView" : 37,
            "componentType" : 5126,
            "count" : 12548,
            "type" : "VEC3"
        },
        {
            "bufferView" : 38,
            "componentType" : 5126,
            "count" : 12548,
            "type" : "VEC2"
        },
        {
            "bufferView" : 39,
            "componentType" : 5123,
            "count" : 70464,
            "type" : "SCALAR"
        },
        {
            "bufferView" : 40,
            "componentType" : 5126,
            "count" : 1138,
            "max" : [
                0.9329402446746826,
                0.3592997193336487,
                0.9329407215118408
            ],
            "min" : [
                -0.9329404830932617,
                -0.33602505922317505,
                -0.9329400062561035
            ],
            "type" : "VEC3"
        },
        {
            "bufferView" : 41,
            "componentType" : 5126,
            "count" : 1138,
            "type" : "VEC3"
        },
        {
            "bufferView" : 42,
            "componentType" : 5126,
            "count" : 1138,
            "type" : "VEC2"
        },
        {
            "bufferView" : 43,
            "componentType" : 5123,
            "count" : 6432,
            "type" : "SCALAR"
        },
        {
            "bufferView" : 44,
            "componentType" : 5126,
            "count" : 1138,
            "max" : [
                -0.06596612930297852,
                4.735493183135986,
                1.153587818145752
            ],
            "min" : [
                -2.3731415271759033,
                3.7740252017974854,
                -1.153587818145752
            ],
            "type" : "VEC3"
        },
        {
            "bufferView" : 45,
            "componentType" : 5126,
            "count" : 1138,
            "type" : "VEC3"
        },
        {
            "bufferView" : 46,
            "componentType" : 5126,
            "count" : 1138,
            "type" : "VEC2"
        },
        {
            "bufferView" : 47,
            "componentType" : 5123,
            "count" : 6432,
            "type" : "SCALAR"
        }
    ],
    "bufferViews" : [
        {
            "buffer" : 0,
            "byteLength" : 39960,
            "byteOffset" : 0
        },
        {
            "buffer" : 0,
            "byteLength" : 39960,
            "byteOffset" : 39960
        },
        {
            "buffer" : 0,
            "byteLength" : 26640,
            "byteOffset" : 79920
        },
        {
            "buffer" : 0,
            "byteLength" : 35286,
            "byteOffset" : 106560
        },
        {
            "buffer" : 0,
            "byteLength" : 46104,
            "byteOffset" : 141848
        },
        {
            "buffer" : 0,
            "byteLength" : 46104,
            "byteOffset" : 187952
        },
        {
            "buffer" : 0,
            "byteLength" : 30736,
            "byteOffset" : 234056
        },
        {
            "buffer" : 0,
            "byteLength" : 43776,
            "byteOffset" : 264792
        },
        {
            "buffer" : 0,
            "byteLength" : 150168,
            "byteOffset" : 308568
        },
        {
            "buffer" : 0,
            "byteLength" : 150168,
            "byteOffset" : 458736
        },
        {
            "buffer" : 0,
            "byteLength" : 100112,
            "byteOffset" : 608904
        },
        {
            "buffer" : 0,
            "byteLength" : 140724,
            "byteOffset" : 709016
        },
        {
            "buffer" : 0,
            "byteLength" : 38508,
            "byteOffset" : 849740
        },
        {
            "buffer" : 0,
            "byteLength" : 38508,
            "byteOffset" : 888248
        },
        {
            "buffer" : 0,
            "byteLength" : 25672,
            "byteOffset" : 926756
        },
        {
            "buffer" : 0,
            "byteLength" : 32832,
            "byteOffset" : 952428
        },
        {
            "buffer" : 0,
            "byteLength" : 93300,
            "byteOffset" : 985260
        },
        {
            "buffer" : 0,
            "byteLength" : 93300,
            "byteOffset" : 1078560
        },
        {
            "buffer" : 0,
            "byteLength" : 62200,
            "byteOffset" : 1171860
        },
        {
            "buffer" : 0,
            "byteLength" : 87930,
            "byteOffset" : 1234060
        },
        {
            "buffer" : 0,
            "byteLength" : 15000,
            "byteOffset" : 1321992
        },
        {
            "buffer" : 0,
            "byteLength" : 15000,
            "byteOffset" : 1336992
        },
        {
            "buffer" : 0,
            "byteLength" : 10000,
            "byteOffset" : 1351992
        },
        {
            "buffer" : 0,
            "byteLength" : 13248,
            "byteOffset" : 1361992
        },
        {
            "buffer" : 0,
            "byteLength" : 46104,
            "byteOffset" : 1375240
        },
        {
            "buffer" : 0,
            "byteLength" : 46104,
            "byteOffset" : 1421344
        },
        {
            "buffer" : 0,
            "byteLength" : 30736,
            "byteOffset" : 1467448
        },
        {
            "buffer" : 0,
            "byteLength" : 43776,
            "byteOffset" : 1498184
        },
        {
            "buffer" : 0,
            "byteLength" : 4752,
            "byteOffset" : 1541960
        },
        {
            "buffer" : 0,
            "byteLength" : 4752,
            "byteOffset" : 1546712
        },
        {
            "buffer" : 0,
            "byteLength" : 3168,
            "byteOffset" : 1551464
        },
        {
            "buffer" : 0,
            "byteLength" : 4296,
            "byteOffset" : 1554632
        },
        {
            "buffer" : 0,
            "byteLength" : 38508,
            "byteOffset" : 1558928
        },
        {
            "buffer" : 0,
            "byteLength" : 38508,
            "byteOffset" : 1597436
        },
        {
            "buffer" : 0,
            "byteLength" : 25672,
            "byteOffset" : 1635944
        },
        {
            "buffer" : 0,
            "byteLength" : 32832,
            "byteOffset" : 1661616
        },
        {
            "buffer" : 0,
            "byteLength" : 150576,
            "byteOffset" : 1694448
        },
        {
            "buffer" : 0,
            "byteLength" : 150576,
            "byteOffset" : 1845024
        },
        {
            "buffer" : 0,
            "byteLength" : 100384,
            "byteOffset" : 1995600
        },
        {
            "buffer" : 0,
            "byteLength" : 140928,
            "byteOffset" : 2095984
        },
        {
            "buffer" : 0,
            "byteLength" : 13656,
            "byteOffset" : 2236912
        },
        {
            "buffer" : 0,
            "byteLength" : 13656,
            "byteOffset" : 2250568
        },
        {
            "buffer" : 0,
            "byteLength" : 9104,
            "byteOffset" : 2264224
        },
        {
            "buffer" : 0,
            "byteLength" : 12864,
            "byteOffset" : 2273328
        },
        {
            "buffer" : 0,
            "byteLength" : 13656,
            "byteOffset" : 2286192
        },
        {
            "buffer" : 0,
            "byteLength" : 13656,
            "byteOffset" : 2299848
        },
        {
            "buffer" : 0,
            "byteLength" : 9104,
            "byteOffset" : 2313504
        },
        {
            "buffer" : 0,
            "byteLength" : 12864,
            "byteOffset" : 2322608
        }
    ],
    "buffers" : [
        {
            "byteLength" : 2335472,
            "uri" : "data:application/octet-stream;base64,"
        }
    ]
}
